# xmcd
#
# Track frame offsets:
#	150
#	9262
#	24426
#	41338
#	55311
#	67989
#	81392
#	96911
#	113298
#	126899
#	144534
#	158041
#	173630
#
# Disc length: 3304 seconds
# Revision: 0
# Processed by: cddbd v1.5.2PL0 Copyright (c) Steve Scherf et al.
# Submitted via: dBpowerAMP V12.0
#
DISCID=990ce60d
DTITLE=Les Berthes - Contes de faits
DYEAR=2006
DGENRE=Chanson
TTITLE0=Le reveil
TTITLE1=Les enfants perdus
TTITLE2=Solitudement votre
TTITLE3=Le bourbier
TTITLE4=Tout au bout du tunnel
TTITLE5=Dans le blanc des yeux
TTITLE6=Et d'autres chemins
TTITLE7=Faites comme si
TTITLE8=Le temps
TTITLE9=Sur un air de printemps
TTITLE10=Petit bonheur
TTITLE11=Coco
TTITLE12=Seropo
EXTD=
EXTT0=
EXTT1=
EXTT2=
EXTT3=
EXTT4=
EXTT5=
EXTT6=
EXTT7=
EXTT8=
EXTT9=
EXTT10=
EXTT11=
EXTT12=
PLAYORDER=
